<svg width="20" height="14" viewBox="0 0 20 14" fill="none" xmlns="http://www.w3.org/2000/svg">
<path d="M20 6H2V8H20V6Z" fill="#A4B5BA"/>
<path d="M8.25202 14C8.56996 14 8.88358 13.8525 9.08481 13.5761C9.41706 13.1171 9.31609 12.4748 8.85566 12.1432L2.31432 7.40368C2.14676 7.28266 2.05152 7.14517 2.05152 7.02559C2.0508 6.90673 2.14605 6.76782 2.31361 6.64608L8.86137 1.85483C9.31822 1.52043 9.41776 0.877406 9.08334 0.420553C8.74966 -0.0370151 8.10949 -0.136557 7.64906 0.197862L1.1013 4.98912C0.398844 5.50254 -0.00215541 6.24653 -1.06501e-05 7.02994C0.000705554 7.81331 0.406734 8.55516 1.11062 9.06564L7.65196 13.8052C7.83241 13.9362 8.04293 14 8.25202 14V14Z" fill="#A4B5BA"/>
</svg>
