<svg width="77" height="14" viewBox="0 0 77 14" fill="none" xmlns="http://www.w3.org/2000/svg">
<path d="M0 5.97272H74.7074V8.02564H0V5.97272Z" fill="#4F4F4F"/>
<path d="M68.1796 14C67.8617 14 67.5481 13.8525 67.3468 13.5761C67.0146 13.1171 67.1155 12.4748 67.576 12.1432L74.1173 7.40368C74.2849 7.28266 74.3801 7.14517 74.3801 7.02559C74.3808 6.90673 74.2856 6.76782 74.118 6.64608L67.5703 1.85483C67.1134 1.52043 67.0139 0.877406 67.3483 0.420553C67.682 -0.0370151 68.3222 -0.136557 68.7826 0.197862L75.3303 4.98912C76.0328 5.50254 76.4338 6.24653 76.4317 7.02994C76.4309 7.81331 76.0249 8.55516 75.321 9.06564L68.7797 13.8052C68.5992 13.9362 68.3887 14 68.1796 14V14Z" fill="#4F4F4F"/>
</svg>
