<svg width="197" height="195" viewBox="0 0 197 195" fill="none" xmlns="http://www.w3.org/2000/svg">
<ellipse cx="98.4999" cy="97.1459" rx="98.4999" ry="97.1459" fill="url(#paint0_linear_1002_256)"/>
<circle cx="91.0532" cy="87.6683" r="81.5755" fill="#49BCCD"/>
<path d="M120.423 62.825L108.631 51.0328C108.465 50.8666 108.215 50.7837 107.966 50.7837H63.955C63.3741 50.7009 62.9587 51.1162 62.9587 51.6972V122.614C62.9587 123.112 63.3741 123.61 63.955 123.61H96.3408C96.8389 123.61 97.3371 123.195 97.3371 122.614C97.3371 122.115 96.9217 121.617 96.3408 121.617H64.8685V52.6939H106.887V64.5683H118.761V93.9646C118.761 94.4627 119.177 94.9609 119.758 94.9609C120.256 94.9609 120.754 94.5456 120.754 93.9646L120.755 63.5718C120.755 63.3228 120.672 63.0737 120.423 62.8246L120.423 62.825ZM108.88 54.0222L117.433 62.5754H108.88V54.0222Z" fill="white"/>
<path d="M116.603 131.914C106.97 131.914 99.1643 124.108 99.1643 114.476C99.1643 104.843 106.97 97.0372 116.603 97.0372C126.236 97.0372 134.041 104.843 134.041 114.476C134.041 124.109 126.235 131.914 116.603 131.914ZM116.603 98.9472C108.05 98.9472 101.074 105.922 101.074 114.476C101.074 123.029 108.049 130.004 116.603 130.004C125.156 130.004 132.131 123.029 132.131 114.476C132.131 105.923 125.156 98.9472 116.603 98.9472Z" fill="white"/>
<path d="M111.454 72.2913H72.176C71.6778 72.2913 71.1797 71.876 71.1797 71.295C71.1797 70.7969 71.595 70.2987 72.176 70.2987H111.454C111.952 70.2987 112.45 70.714 112.45 71.295C112.451 71.876 112.036 72.2913 111.454 72.2913Z" fill="white"/>
<path d="M111.454 86.9063H72.176C71.6778 86.9063 71.1797 86.491 71.1797 85.91C71.1797 85.3284 71.595 84.9137 72.176 84.9137H111.454C111.952 84.9137 112.45 85.329 112.45 85.91C112.451 86.491 112.036 86.9063 111.454 86.9063Z" fill="white"/>
<path d="M111.454 94.2139H72.176C71.6778 94.2139 71.1797 93.7986 71.1797 93.2176C71.1797 92.6361 71.595 92.2213 72.176 92.2213H111.454C111.952 92.2213 112.45 92.6366 112.45 93.2176C112.451 93.7986 112.036 94.2139 111.454 94.2139Z" fill="white"/>
<path d="M111.454 79.5988H72.176C71.6778 79.5988 71.1797 79.1835 71.1797 78.6025C71.1797 78.0209 71.595 77.6062 72.176 77.6062H111.454C111.952 77.6062 112.45 78.0215 112.45 78.6025C112.451 79.1835 112.036 79.5988 111.454 79.5988Z" fill="white"/>
<path d="M99.3302 101.521H72.176C71.6778 101.521 71.1797 101.106 71.1797 100.525C71.1797 100.027 71.595 99.5288 72.176 99.5288H99.3302C99.8283 99.5288 100.326 99.9441 100.326 100.525C100.244 101.106 99.8283 101.521 99.3302 101.521Z" fill="white"/>
<path d="M91.8565 108.829H72.176C71.6778 108.829 71.1797 108.414 71.1797 107.833C71.1797 107.335 71.595 106.836 72.176 106.836H91.8565C92.3547 106.836 92.8528 107.252 92.8528 107.833C92.8534 108.414 92.3547 108.829 91.8565 108.829Z" fill="white"/>
<path d="M121.502 111.818L117.516 107.833C117.101 107.417 116.52 107.417 116.105 107.833L112.119 111.818C111.704 112.234 111.704 112.815 112.119 113.23C112.285 113.396 112.534 113.479 112.783 113.479C113.032 113.479 113.282 113.396 113.448 113.23L115.773 110.905L115.772 120.371C115.772 120.953 116.188 121.368 116.769 121.368C117.35 121.368 117.765 120.952 117.765 120.371L117.766 110.905L120.091 113.23C120.257 113.396 120.506 113.479 120.755 113.479C121.004 113.479 121.253 113.396 121.419 113.23C121.918 112.898 121.918 112.234 121.502 111.818H121.502Z" fill="white"/>
<defs>
<linearGradient id="paint0_linear_1002_256" x1="122.835" y1="-25.8418" x2="79.4345" y2="227.343" gradientUnits="userSpaceOnUse">
<stop stop-color="#C2F8FF" stop-opacity="0"/>
<stop offset="1" stop-color="#C2F8FF"/>
</linearGradient>
</defs>
</svg>
