<svg width="197" height="195" viewBox="0 0 197 195" fill="none" xmlns="http://www.w3.org/2000/svg">
<ellipse cx="98.5" cy="97.146" rx="98.5" ry="97.146" fill="url(#paint0_linear_1002_272)"/>
<circle cx="91.0534" cy="87.6684" r="81.5756" fill="#49BCCD"/>
<path d="M117.83 53.563H95.0209V51.087C95.0209 50.4567 94.4977 49.9335 93.8674 49.9335H86.8075C86.1772 49.9335 85.654 50.4567 85.654 51.087V53.563H62.8452C62.2149 53.563 61.6917 54.0862 61.6917 54.7165V124.913C61.6917 125.543 62.2149 126.067 62.8452 126.067H117.846C118.476 126.067 118.999 125.543 118.999 124.913L119 54.7165C118.984 54.0862 118.462 53.563 117.831 53.563H117.83ZM87.96 52.2406H92.7128V53.563H87.96V52.2406ZM86.8064 55.87H101.295V61.0842H79.3774V55.87H86.8064ZM116.676 123.76H63.9836V55.87H77.057V62.2379C77.057 62.8682 77.5802 63.3914 78.2105 63.3914H102.434C103.065 63.3914 103.588 62.8682 103.588 62.2379V55.87H116.661V123.76H116.676ZM76.5481 73.0662C75.9178 73.0662 75.3946 73.5895 75.3946 74.2198V101.782C75.3946 102.412 75.9178 102.935 76.5481 102.935H104.11C104.74 102.935 105.263 102.412 105.263 101.782L105.263 74.2198C105.263 73.5895 104.74 73.0662 104.109 73.0662H76.5481ZM102.955 100.628H77.7012V75.3742H102.957L102.955 100.628ZM78.7611 88.816C78.3148 88.3697 78.3148 87.6316 78.7611 87.186C79.2075 86.7396 79.9456 86.7396 80.3912 87.186L87.3592 94.1532L100.248 81.2646C100.694 80.8183 101.432 80.8183 101.878 81.2646C102.324 81.7109 102.324 82.449 101.878 82.8946L88.1583 96.6142C87.9276 96.8449 87.6351 96.9527 87.3433 96.9527C87.0508 96.9527 86.759 96.8449 86.5283 96.6142L78.7611 88.816ZM105.015 58.4857C105.015 57.8554 105.538 57.3322 106.169 57.3322H113.643C114.274 57.3322 114.797 57.8554 114.797 58.4857V121.361C114.797 121.991 114.274 122.515 113.643 122.515L90.3265 122.515H67.0097C66.3794 122.515 65.8561 121.992 65.8561 121.362V58.4864C65.8561 57.8561 66.3794 57.3329 67.0097 57.3329H74.4842C75.1146 57.3329 75.6378 57.8561 75.6378 58.4864C75.6378 59.1167 75.1146 59.64 74.4842 59.64H68.1631V120.207L90.3268 120.208H112.491V59.6389H106.169C105.539 59.6389 105.016 59.1164 105.016 58.4853L105.015 58.4857Z" fill="white"/>
<defs>
<linearGradient id="paint0_linear_1002_272" x1="122.835" y1="-25.8418" x2="79.4346" y2="227.343" gradientUnits="userSpaceOnUse">
<stop stop-color="#C2F8FF" stop-opacity="0"/>
<stop offset="1" stop-color="#C2F8FF"/>
</linearGradient>
</defs>
</svg>
