<svg width="70" height="70" viewBox="0 0 70 70" fill="none" xmlns="http://www.w3.org/2000/svg">
<path d="M52.2588 16.4199H28.9762L27.8832 30.2345L14.6914 31.9502V52.4496L16.8773 55.3091H41.8884L41.685 39.1879L55.309 38.6223V17.2587L52.2588 16.4199Z" fill="#49BCCD"/>
<path d="M37.7534 35.7177L32.9412 32.0935C32.5308 31.7839 31.9756 32.1208 31.9756 32.6763V39.9155C31.9756 40.4801 32.5309 40.8079 32.9412 40.4983L37.7534 36.8741C38.1155 36.61 38.1155 35.9909 37.7534 35.7177V35.7177Z" fill="#2C2C2C"/>
<path d="M25.4512 32.4074H4.24367C3.11818 32.4074 2.03904 31.9606 1.24317 31.1647C0.447263 30.3688 0 29.2892 0 28.1637V4.24367C0 3.11818 0.447263 2.03904 1.24317 1.24317C2.03907 0.447264 3.11817 0 4.24367 0H25.4512C26.5767 0 27.6559 0.447264 28.4517 1.24317C29.2476 2.03907 29.6949 3.11817 29.6949 4.24367V28.1637C29.6949 29.2892 29.2476 30.3689 28.4517 31.1647C27.6558 31.9606 26.5767 32.4074 25.4512 32.4074ZM4.24367 2.18734C3.69826 2.18734 3.17531 2.40414 2.78954 2.78939C2.40429 3.17513 2.18749 3.69808 2.18749 4.24352V28.1636C2.18749 28.709 2.40429 29.2319 2.78954 29.6177C3.17528 30.0034 3.69823 30.2198 4.24367 30.2198H25.4512C25.9966 30.2198 26.5196 30.0034 26.9053 29.6177C27.2906 29.232 27.5074 28.709 27.5074 28.1636V4.24352C27.5074 3.69811 27.2906 3.17516 26.9053 2.78939C26.5196 2.40414 25.9967 2.18734 25.4512 2.18734H4.24367Z" fill="#2C2C2C"/>
<path d="M65.7788 70H44.5813C43.4548 70 42.3743 69.5532 41.5769 68.7578C40.7791 67.9619 40.3298 66.8828 40.3269 65.7563V41.8362C40.3298 40.7098 40.7791 39.6302 41.5769 38.8347C42.3743 38.0393 43.4548 37.5925 44.5813 37.5925H65.7788C66.8994 37.6008 67.9717 38.0515 68.7622 38.8464C69.5527 39.6408 69.9976 40.715 70.0005 41.8362V65.7562C69.9976 66.8768 69.5527 67.9515 68.7622 68.746C67.9717 69.5409 66.8995 69.9911 65.7788 69.9999V70ZM44.5813 39.7799C44.0349 39.7799 43.511 39.9962 43.1238 40.3815C42.7361 40.7667 42.5173 41.2897 42.5144 41.8361V65.7562C42.5173 66.3025 42.7361 66.8255 43.1238 67.2108C43.511 67.596 44.0349 67.8124 44.5813 67.8124H65.7788C66.3194 67.8036 66.835 67.5838 67.2153 67.1991C67.5957 66.8148 67.8101 66.2967 67.813 65.7562V41.8361C67.8101 41.2897 67.5908 40.7668 67.2036 40.3815C66.8164 39.9962 66.292 39.7799 65.7456 39.7799L44.5813 39.7799Z" fill="#2C2C2C"/>
<path d="M23.0677 10.2371H6.66138C6.05689 10.2371 5.56763 9.7478 5.56763 9.14331C5.56763 8.53931 6.05689 8.04956 6.66138 8.04956H23.0677C23.6717 8.04956 24.1614 8.53931 24.1614 9.14331C24.1614 9.7478 23.6717 10.2371 23.0677 10.2371Z" fill="#2C2C2C"/>
<path d="M6.69361 25.0025H6.56226C5.95826 25.0025 5.46851 24.5132 5.46851 23.9087C5.46851 23.3047 5.95826 22.815 6.56226 22.815C6.8357 22.815 13.3108 22.9243 16.8215 17.751C18.444 15.2597 19.0759 12.2519 18.5935 9.31831C18.5462 9.03071 18.6155 8.73677 18.7859 8.50043C18.9563 8.26459 19.2137 8.1059 19.5013 8.06049C19.7918 8.00678 20.0921 8.0727 20.3333 8.24359C20.574 8.41498 20.7356 8.67621 20.781 8.96821C21.3357 12.4605 20.555 16.0336 18.5935 18.976C14.7547 24.6855 8.10426 25.0024 6.69363 25.0024L6.69361 25.0025Z" fill="#2C2C2C"/>
<path d="M22.9036 25.2211C21.4925 25.2211 14.8426 24.9037 10.971 19.1947H10.9705C9.03196 16.2436 8.27471 12.6708 8.84884 9.18693C8.89425 8.89933 9.05245 8.642 9.28878 8.47159C9.5251 8.30117 9.81905 8.23184 10.1067 8.2792C10.3943 8.32461 10.6516 8.4833 10.822 8.71914C10.9924 8.95546 11.0617 9.24941 11.0144 9.53701C10.5251 12.4706 11.1579 15.4809 12.7864 17.9697C16.2971 23.143 22.7723 23.0449 23.0457 23.0337C23.6497 23.0337 24.1394 23.5234 24.1394 24.1274C24.1394 24.7319 23.6497 25.2212 23.0457 25.2212L22.9036 25.2211Z" fill="#2C2C2C"/>
<path d="M14.8525 10.0183C14.2485 10.0183 13.7588 9.52904 13.7588 8.92455V5.10767C13.7588 4.50367 14.2485 4.01392 14.8525 4.01392C15.4565 4.01392 15.9463 4.50367 15.9463 5.10767V8.92455C15.9463 9.21459 15.8311 9.49292 15.626 9.69799C15.4209 9.90307 15.1426 10.0183 14.8525 10.0183Z" fill="#2C2C2C"/>
<path d="M61.25 61.2499C60.8111 61.2494 60.4151 60.9867 60.2437 60.5829L55.125 48.5517L49.8858 60.5829C49.625 61.1025 49.003 61.3276 48.4703 61.0947C47.9371 60.8618 47.6798 60.2524 47.8843 59.7079L54.1295 45.3804H54.13C54.3043 44.9805 54.6998 44.7222 55.1358 44.7241C55.5748 44.7241 55.9713 44.9868 56.1422 45.3911L62.3438 59.6974C62.461 59.9645 62.4664 60.2667 62.3599 60.5377C62.253 60.8087 62.0425 61.026 61.775 61.1413C61.6104 61.2169 61.4312 61.254 61.2501 61.2506L61.25 61.2499Z" fill="#2C2C2C"/>
<path d="M59.0625 56.0549H51.1875C50.5835 56.0549 50.0938 55.5652 50.0938 54.9612C50.0938 54.3572 50.5835 53.8674 51.1875 53.8674H59.0625C59.6665 53.8674 60.1563 54.3572 60.1563 54.9612C60.1563 55.5652 59.6665 56.0549 59.0625 56.0549Z" fill="#2C2C2C"/>
<path d="M55.1801 39.78C54.5761 39.78 54.0863 39.2903 54.0863 38.6863V18.3975C54.0863 18.1074 53.9711 17.8291 53.766 17.624C53.561 17.419 53.2826 17.3037 52.9926 17.3037H28.6025C27.9985 17.3037 27.5088 16.814 27.5088 16.21C27.5088 15.606 27.9985 15.1162 28.6025 15.1162H52.9926C53.8627 15.1162 54.6977 15.4619 55.3128 16.0771C55.928 16.6924 56.2738 17.5274 56.2738 18.3974V38.6862C56.2738 38.9762 56.1586 39.2546 55.9535 39.4596C55.7484 39.6647 55.4701 39.78 55.18 39.78L55.1801 39.78Z" fill="#2C2C2C"/>
<path d="M41.42 56.0549H17.04C16.1699 56.0549 15.3354 55.7092 14.7197 55.0939C14.1045 54.4787 13.7588 53.6437 13.7588 52.7737V32.4849C13.7588 31.8809 14.2485 31.3911 14.8525 31.3911C15.4565 31.3911 15.9463 31.8809 15.9463 32.4849V52.7737C15.9463 53.0637 16.0615 53.342 16.2666 53.5471C16.4717 53.7522 16.75 53.8674 17.04 53.8674H41.4201C42.0241 53.8674 42.5139 54.3572 42.5139 54.9612C42.5139 55.5652 42.0241 56.0549 41.4201 56.0549L41.42 56.0549Z" fill="#2C2C2C"/>
</svg>
