<svg width="66" height="66" viewBox="0 0 66 66" fill="none" xmlns="http://www.w3.org/2000/svg">
<path d="M33 4.71429C33 2.11503 30.8855 0 28.2857 0H4.71429C2.11453 0 0 2.11503 0 4.71429V28.2857C0 30.885 2.11453 33 4.71429 33H28.2857C30.8855 33 33 30.885 33 28.2857V4.71429ZM30.6429 28.2857C30.6429 29.586 29.5853 30.6429 28.2857 30.6429H4.71429C3.41469 30.6429 2.35714 29.586 2.35714 28.2857V4.71429C2.35714 3.41404 3.41469 2.35714 4.71429 2.35714H28.2857C29.5853 2.35714 30.6429 3.41404 30.6429 4.71429V28.2857Z" fill="white"/>
<path d="M62.0536 33.9285H36.1607L33.9286 36.607V62.0535L36.1607 64.2856H62.0536L64.2857 62.0535V36.607L62.0536 33.9285Z" fill="#B7E546"/>
<path d="M61.2857 33H37.7143C35.1145 33 33 35.115 33 37.7143V61.2857C33 63.885 35.1145 66 37.7143 66H61.2857C63.8855 66 66 63.885 66 61.2857V37.7143C66 35.115 63.8855 33 61.2857 33ZM63.6429 61.2857C63.6429 62.586 62.5853 63.6429 61.2857 63.6429H37.7143C36.4147 63.6429 35.3571 62.586 35.3571 61.2857V37.7143C35.3571 36.414 36.4147 35.3571 37.7143 35.3571H61.2857C62.5853 35.3571 63.6429 36.414 63.6429 37.7143V61.2857Z" fill="white"/>
<path d="M17.5877 8.97404C17.4048 8.53536 16.9754 8.24927 16.4999 8.24927C16.0244 8.24927 15.5949 8.53536 15.412 8.97404L12.1334 16.8419C11.919 17.0556 11.7855 17.3509 11.7855 17.6778L9.51912 23.1169C9.26788 23.718 9.55266 24.4079 10.1531 24.6578C10.7542 24.9091 11.4442 24.6249 11.6941 24.0238L13.848 18.8565H19.1516L21.3048 24.0245C21.4936 24.477 21.931 24.7499 22.3926 24.7499C22.5446 24.7499 22.6978 24.7203 22.8464 24.6585C23.4476 24.4079 23.7317 23.718 23.4804 23.1176L17.5877 8.97404ZM14.83 16.4992L16.4998 12.4919L18.1697 16.4992H14.83Z" fill="white"/>
<path d="M55.3929 45.9643C56.044 45.9643 56.5715 45.4368 56.5715 44.7857C56.5715 44.1346 56.044 43.6071 55.3929 43.6071H50.6786V42.4286C50.6786 41.7775 50.1511 41.25 49.5 41.25C48.8489 41.25 48.3214 41.7775 48.3214 42.4286V43.6071H43.6072C42.9561 43.6071 42.4286 44.1346 42.4286 44.7857C42.4286 45.4368 42.9561 45.9643 43.6072 45.9643H44.7739C44.8607 47.6072 45.3902 50.4964 47.7532 53.1713C46.5937 54.0315 45.1258 54.8234 43.2342 55.4535C42.6173 55.6593 42.2838 56.3269 42.4897 56.9445C42.6541 57.4384 43.1138 57.7508 43.6071 57.7508C43.7301 57.7508 43.8557 57.731 43.98 57.6896C46.3068 56.9142 48.103 55.9132 49.4999 54.8129C50.8968 55.9125 52.693 56.9136 55.0198 57.6896C55.1441 57.731 55.2698 57.7508 55.3927 57.7508C55.8867 57.7508 56.3457 57.4384 56.5101 56.9445C56.716 56.3269 56.3825 55.6593 55.7656 55.4535C53.8715 54.8221 52.4028 54.0329 51.2421 53.1766C53.6092 50.5004 54.1399 47.6087 54.2261 45.9645L55.3929 45.9643ZM49.4914 51.6012C47.588 49.4631 47.175 47.2264 47.1126 45.9643H51.8794C51.809 47.2211 51.3907 49.4613 49.4913 51.6012H49.4914Z" fill="white"/>
<path d="M36.5356 17.6786C36.5356 17.8568 36.5817 18.0219 36.6527 18.1732C36.6731 18.2172 36.7073 18.2514 36.7329 18.2929C36.7974 18.3955 36.8697 18.4889 36.9618 18.5665C36.9802 18.5823 36.9881 18.6066 37.0072 18.6211L41.7215 22.1568C41.9339 22.3166 42.1812 22.3929 42.4272 22.3929C42.7863 22.3929 43.1394 22.2298 43.371 21.9213C43.7623 21.4004 43.6564 20.6618 43.1349 20.2712L41.25 18.8572H44.7857C45.1231 18.8572 53.0357 18.9644 53.0357 28.2857C53.0357 28.9369 53.5631 29.4643 54.2142 29.4643C54.8654 29.4643 55.3928 28.9369 55.3928 28.2857C55.3928 16.6349 44.8916 16.5 44.7857 16.5H41.25L43.1355 15.0854C43.6571 14.6953 43.763 13.9561 43.3716 13.4352C42.9816 12.915 42.2411 12.8071 41.7222 13.1998L37.0079 16.7355C36.9882 16.75 36.9809 16.7743 36.9625 16.7901C36.8704 16.8683 36.7981 16.9611 36.7336 17.0637C36.7073 17.1051 36.6738 17.1386 36.6534 17.1834C36.5817 17.3353 36.5357 17.5004 36.5357 17.6786L36.5356 17.6786Z" fill="white"/>
<path d="M29.4643 48.3214C29.4643 48.1431 29.4182 47.9781 29.3472 47.8261C29.3268 47.7821 29.2933 47.7485 29.267 47.7071C29.2025 47.6038 29.1302 47.5111 29.0374 47.4328C29.019 47.4171 29.0111 47.3927 28.992 47.3783L24.2778 43.8425C23.7575 43.4519 23.0196 43.5584 22.6283 44.078C22.237 44.5989 22.3428 45.3375 22.8644 45.7281L24.7499 47.1428H21.2142C20.8768 47.1428 12.9642 47.0356 12.9642 37.7142C12.9642 37.0631 12.4367 36.5356 11.7856 36.5356C11.1345 36.5356 10.6071 37.0631 10.6071 37.7142C10.6071 49.3651 21.1083 49.4999 21.2142 49.4999H24.7499L22.8644 50.9146C22.3428 51.3046 22.2369 52.0439 22.6283 52.5648C22.8604 52.8725 23.2136 53.0357 23.5727 53.0357C23.8193 53.0357 24.0666 52.9594 24.2784 52.7996L28.9927 49.2638C29.0124 49.2494 29.0197 49.225 29.0381 49.2093C29.1302 49.131 29.2025 49.0383 29.2676 48.935C29.2933 48.8936 29.3268 48.86 29.3478 48.816C29.4182 48.6647 29.4643 48.4996 29.4643 48.3214Z" fill="white"/>
</svg>
