<svg width="336" height="280" viewBox="0 0 336 280" fill="none" xmlns="http://www.w3.org/2000/svg">
<rect width="336" height="280" fill="#C4C4C4"/>
<path d="M134.148 144.135C133.667 144.825 132.993 145.342 132.127 145.688C131.268 146.026 130.265 146.195 129.119 146.195C127.96 146.195 126.932 145.925 126.033 145.385C125.135 144.838 124.438 144.063 123.943 143.061C123.455 142.058 123.204 140.896 123.191 139.574V138.334C123.191 136.192 123.689 134.532 124.686 133.354C125.688 132.175 127.094 131.586 128.904 131.586C130.389 131.586 131.583 131.967 132.488 132.729C133.393 133.484 133.947 134.558 134.148 135.951H132.273C131.922 134.07 130.802 133.129 128.914 133.129C127.658 133.129 126.704 133.572 126.053 134.457C125.408 135.336 125.083 136.612 125.076 138.285V139.447C125.076 141.042 125.441 142.312 126.17 143.256C126.899 144.193 127.885 144.662 129.129 144.662C129.832 144.662 130.447 144.584 130.975 144.428C131.502 144.271 131.938 144.008 132.283 143.637V140.443H128.992V138.92H134.148V144.135ZM136.521 140.619C136.521 139.584 136.723 138.653 137.127 137.826C137.537 136.999 138.104 136.361 138.826 135.912C139.555 135.463 140.385 135.238 141.316 135.238C142.755 135.238 143.917 135.736 144.803 136.732C145.695 137.729 146.141 139.053 146.141 140.707V140.834C146.141 141.863 145.942 142.787 145.545 143.607C145.154 144.421 144.591 145.056 143.855 145.512C143.126 145.967 142.286 146.195 141.336 146.195C139.904 146.195 138.742 145.697 137.85 144.701C136.964 143.705 136.521 142.387 136.521 140.746V140.619ZM138.338 140.834C138.338 142.006 138.608 142.947 139.148 143.656C139.695 144.366 140.424 144.721 141.336 144.721C142.254 144.721 142.983 144.363 143.523 143.646C144.064 142.924 144.334 141.915 144.334 140.619C144.334 139.46 144.057 138.523 143.504 137.807C142.957 137.084 142.228 136.723 141.316 136.723C140.424 136.723 139.705 137.077 139.158 137.787C138.611 138.497 138.338 139.512 138.338 140.834ZM147.928 140.619C147.928 139.584 148.13 138.653 148.533 137.826C148.943 136.999 149.51 136.361 150.232 135.912C150.962 135.463 151.792 135.238 152.723 135.238C154.161 135.238 155.324 135.736 156.209 136.732C157.101 137.729 157.547 139.053 157.547 140.707V140.834C157.547 141.863 157.348 142.787 156.951 143.607C156.561 144.421 155.997 145.056 155.262 145.512C154.533 145.967 153.693 146.195 152.742 146.195C151.31 146.195 150.148 145.697 149.256 144.701C148.37 143.705 147.928 142.387 147.928 140.746V140.619ZM149.744 140.834C149.744 142.006 150.014 142.947 150.555 143.656C151.102 144.366 151.831 144.721 152.742 144.721C153.66 144.721 154.389 144.363 154.93 143.646C155.47 142.924 155.74 141.915 155.74 140.619C155.74 139.46 155.464 138.523 154.91 137.807C154.363 137.084 153.634 136.723 152.723 136.723C151.831 136.723 151.111 137.077 150.564 137.787C150.018 138.497 149.744 139.512 149.744 140.834ZM159.383 140.629C159.383 138.982 159.764 137.673 160.525 136.703C161.287 135.727 162.296 135.238 163.553 135.238C164.842 135.238 165.848 135.694 166.57 136.605L166.658 135.434H168.309V145.746C168.309 147.113 167.902 148.191 167.088 148.979C166.281 149.766 165.193 150.16 163.826 150.16C163.064 150.16 162.319 149.997 161.59 149.672C160.861 149.346 160.304 148.9 159.92 148.334L160.857 147.25C161.632 148.207 162.579 148.686 163.699 148.686C164.578 148.686 165.262 148.438 165.75 147.943C166.245 147.449 166.492 146.752 166.492 145.854V144.945C165.77 145.779 164.783 146.195 163.533 146.195C162.296 146.195 161.294 145.697 160.525 144.701C159.764 143.705 159.383 142.348 159.383 140.629ZM161.199 140.834C161.199 142.025 161.443 142.963 161.932 143.646C162.42 144.324 163.104 144.662 163.982 144.662C165.122 144.662 165.958 144.145 166.492 143.109V138.285C165.939 137.276 165.109 136.771 164.002 136.771C163.123 136.771 162.436 137.113 161.941 137.797C161.447 138.48 161.199 139.493 161.199 140.834ZM173.006 146H171.199V131H173.006V146ZM180.291 146.195C178.859 146.195 177.693 145.727 176.795 144.789C175.896 143.845 175.447 142.585 175.447 141.01V140.678C175.447 139.63 175.646 138.695 176.043 137.875C176.447 137.048 177.007 136.404 177.723 135.941C178.445 135.473 179.227 135.238 180.066 135.238C181.44 135.238 182.508 135.691 183.27 136.596C184.031 137.501 184.412 138.796 184.412 140.482V141.234H177.254C177.28 142.276 177.583 143.119 178.162 143.764C178.748 144.402 179.49 144.721 180.389 144.721C181.027 144.721 181.567 144.59 182.01 144.33C182.452 144.07 182.84 143.725 183.172 143.295L184.275 144.154C183.39 145.515 182.062 146.195 180.291 146.195ZM180.066 136.723C179.337 136.723 178.725 136.99 178.23 137.523C177.736 138.051 177.43 138.793 177.312 139.75H182.605V139.613C182.553 138.695 182.306 137.986 181.863 137.484C181.421 136.977 180.822 136.723 180.066 136.723ZM199.607 142.289H193.65L192.312 146H190.379L195.809 131.781H197.449L202.889 146H200.965L199.607 142.289ZM194.217 140.746H199.051L196.629 134.096L194.217 140.746ZM204.08 140.629C204.08 139.008 204.464 137.706 205.232 136.723C206.001 135.733 207.007 135.238 208.25 135.238C209.487 135.238 210.467 135.661 211.189 136.508V131H212.996V146H211.336L211.248 144.867C210.525 145.753 209.52 146.195 208.23 146.195C207.007 146.195 206.007 145.694 205.232 144.691C204.464 143.689 204.08 142.38 204.08 140.766V140.629ZM205.887 140.834C205.887 142.032 206.134 142.969 206.629 143.646C207.124 144.324 207.807 144.662 208.68 144.662C209.826 144.662 210.662 144.148 211.189 143.119V138.266C210.649 137.27 209.819 136.771 208.699 136.771C207.814 136.771 207.124 137.113 206.629 137.797C206.134 138.48 205.887 139.493 205.887 140.834Z" fill="#434343"/>
</svg>
